<?xml version="1.0" encoding="utf-8"?>
<!-- Generator: Adobe Illustrator 17.1.0, SVG Export Plug-In . SVG Version: 6.00 Build 0)  -->
<!DOCTYPE svg PUBLIC "-//W3C//DTD SVG 1.1//EN" "http://www.w3.org/Graphics/SVG/1.1/DTD/svg11.dtd">
<svg version="1.1" id="Capa_1" xmlns="http://www.w3.org/2000/svg" xmlns:xlink="http://www.w3.org/1999/xlink" x="0px" y="0px"
	 viewBox="0 -0.3 553.1 131.8" enable-background="new 0 -0.3 553.1 131.8" xml:space="preserve">
<g>
	<g>
		<g>
			<path d="M4.7,47.3l0.6,0.6c2.9,2.1,6.5,4.1,10.3,4.1c1.8,0,4.1-0.6,4.1-2.6c0-1.8-2.1-2.1-3.5-2.3l-3.2-0.6
				c-6.5-1.2-11.7-4.7-11.7-12c0-10.6,9.7-16.4,19.4-16.4c5,0,9.7,1.2,14.1,3.8l-4.4,11.4c-2.9-1.8-5.9-3.2-9.4-3.2
				c-1.5,0-3.2,0.6-3.2,2.3s1.8,1.8,3.2,2.1l3.5,0.6c7,1.5,12,5.3,12,12.9c0,10.6-9.7,15.9-19.4,15.9c-5.6,0-12-1.5-17-4.1L4.7,47.3
				z"/>
			<path d="M82.5,18.2v26.4c0,13.2-8.2,19.1-20.8,19.1s-20.8-5.9-20.8-19.1V18.2h16.1v25c0,3.5,0,6.8,4.4,6.8s4.4-3.2,4.4-6.8v-25
				H82.5z"/>
			<path d="M105.4,30.8h1.5c2.6,0,5.9,0.3,5.9,3.5c0,3.5-3.2,4.1-5.9,4.1h-1.8L105.4,30.8L105.4,30.8z M89.5,63.1h15.9V49.6h8.2
				c9.1,0,14.7-5.6,14.7-14.7c0-11.2-7.6-16.4-18.2-16.4H89.5V63.1L89.5,63.1z"/>
			<path d="M132.4,18.2h29.9v12h-13.8v4.4h12.9v11.7h-12.6v4.4h14.4v12h-30.8V18.2z"/>
			<path d="M185.8,30.8h1.2c2.9,0,5.3,0.6,5.3,3.8c0,3.2-2.6,3.8-5.3,3.8h-1.2V30.8L185.8,30.8z M170,63.1h15.9V48.7h0.3l7,14.4
				h18.8l-9.7-14.7c-0.9-1.2-1.8-1.8-2.6-2.6v-0.3c5.9-1.8,8.5-4.7,8.5-11.7c0-11.2-8.5-15.6-18.5-15.6H170
				C170,18.5,170,63.1,170,63.1z"/>
			<path d="M220.1,18.2h16.7l6.2,23.5h0.3c0.3-1.8,0.6-4.1,1.2-5.9l5-17.6h16.7l7.3,44.9H258L256,38.5h-0.3
				c-0.3,1.5-0.6,3.2-1.2,4.4L248,63.1h-9.4l-5.6-18.8c-0.6-1.8-0.9-3.5-0.9-5.6h-0.6c0,1.8-0.3,3.5-0.6,5.6l-1.8,19.1h-15.9
				L220.1,18.2z"/>
			<path d="M278.6,18.2h29.9v12h-13.8v4.4h12.6v11.7h-12.6v4.4h14.4v12h-30.5V18.2z"/>
			<path d="M332,30.8h1.2c2.9,0,5.3,0.6,5.3,3.8c0,3.2-2.6,3.8-5.3,3.8H332V30.8L332,30.8z M316.1,63.1H332V48.7h0.3l7,14.4h18.8
				l-9.7-14.4c-0.9-1.2-1.8-1.8-2.6-2.6v-0.3c5.9-1.8,8.5-4.7,8.5-11.7c0-11.2-8.5-15.6-18.5-15.6h-19.7V63.1L316.1,63.1z"/>
			<path d="M394.2,36.7c-2.6-2.3-5.9-4.4-9.4-4.4c-4.7,0-8.8,3.8-8.8,8.5c0,5,4.4,8.5,9.1,8.5c3.8,0,6.8-1.8,9.4-4.1l-0.6,16.7
				c-2.6,1.2-8.5,1.8-11.7,1.8c-12.9,0-22.6-10-22.6-22.6c0-13.2,10.3-23.5,23.2-23.5c3.5,0,7.3,0.6,10.9,1.8L394.2,36.7z"/>
			<path d="M417.1,47l2.9-13.5h0.6c0.3,1.8,0.6,3.8,0.9,5.6l1.8,7.9H417.1L417.1,47z M414.5,57.5h12.3l1.5,5.6h17l-15.9-44.6h-17.9
				L396,63.4h17L414.5,57.5z"/>
			<path d="M465,32.3h0.9c5.9,0,9.4,2.6,9.4,9.1c0,5.9-4.1,8.2-9.4,8.2H465V32.3z M448.8,63.1h20.5c13.2,0,22.3-8.2,22.3-21.7
				c0-16.4-11.4-23.2-26.4-23.2h-16.4V63.1L448.8,63.1z"/>
		</g>
		<g>
			<g>
				<path fill="#FFFFFF" stroke="#FFFFFF" stroke-width="0.54" d="M524,21.7c0.3-0.6-0.6-1.8,0.3-2.1c4.4,0,8.5-0.3,12.9-1.5
					c4.7-1.2,8.2-4.7,10.6-8.5c0.6-0.6,1.2-1.5,1.5-2.3c1.5-2.1,2.3-4.4,3.5-7L552.1,0c-2.1,0.9-4.1,1.8-6.2,2.3
					c-2.9,0.9-5.9,0.9-9.1,1.8C531,5.6,526.6,10,524,15l-0.6,0.3c-0.6-4.1-2.3-7.9-0.9-12l-0.6-0.3c-1.8,1.5-3.2,2.9-5,4.4l-0.6,0.3
					c1.5,2.9,2.6,5.9,3.2,8.8c0.3,1.5,0.6,3.2,0.6,4.4c0,0.6,0.3,0.9,0,1.8c0,0.6,0.3,0.9,0.9,1.2c1.2,0.3,2.3-0.3,2.6-1.2
					C524,22.3,524,22,524,21.7L524,21.7z"/>
			</g>
			<path fill="#FFFFFF" stroke="#FFFFFF" stroke-width="0.54" d="M515.4,64.6c-19.7-1.2-24.7-25.2-17-36.4c1.8-2.9,8.2-10.3,25-6.2
				c0,0,0.9,0.6,1.8,0.3c29.6-4.4,29.1,28.8,12.9,39.6c-4.4,3.2-11.4,4.7-17,2.6C518.4,63.4,517.8,64.6,515.4,64.6"/>
			<g>
				<path fill="#31AA47" stroke="#31AA47" stroke-width="3.210000e-02" stroke-miterlimit="3.8636" d="M524,21.7
					c0.3-0.6-0.6-1.8,0.3-2.1c4.4,0,8.5-0.3,12.9-1.5c4.7-1.2,8.2-4.7,10.6-8.5c0.6-0.6,1.2-1.5,1.5-2.3c1.5-2.1,2.3-4.4,3.5-7
					L552.1,0c-2.1,0.9-4.1,1.8-6.2,2.3c-2.9,0.9-5.9,0.9-9.1,1.8C531,5.6,526.6,10,524,15l-0.6,0.3c-0.6-4.1-2.3-7.9-0.9-12
					l-0.6-0.3c-1.8,1.5-3.2,2.9-5,4.4l-0.6,0.3c1.5,2.9,2.6,5.9,3.2,8.8c0.3,1.5,0.6,3.2,0.6,4.4c0,0.6,0.3,0.9,0,1.8
					c0,0.6,0.3,0.9,0.9,1.2c1.2,0.3,2.3-0.3,2.6-1.2C524,22.3,524,22,524,21.7L524,21.7z"/>
			</g>
			<path fill="#E40520" d="M515.4,64.6c-19.7-1.2-24.7-25.2-17-36.4c1.8-2.9,8.2-10.3,25-6.2c0,0,0.9,0.6,1.8,0.3
				c29.6-4.4,29.1,28.8,12.9,39.6c-4.4,3.2-11.4,4.7-17,2.6C518.4,63.4,517.8,64.6,515.4,64.6"/>
		</g>
	</g>
	<g>
		<polygon fill="#009446" points="240.4,82.5 243.9,88.1 230.4,96.9 226.3,91.6 		"/>
		<path fill="#009446" d="M10.6,107.4c2.1,3.5,7,2.9,11.7,0c-5-29.6,22.6-29.1,9.4,0.9c-1.2,1.8,3.2,2.1,5.9,0v5.9
			c-4.7,3.2-9.4,1.5-11.4-0.6c-10.9,7.3-25.5,2.9-22.9-10.6c-10.3-19.1,7-28.2,17.9-23.5v7.9C12,83.4,5.6,89.2,7.6,96.3
			C18.8,88.1,26.4,108.3,10.6,107.4z M10.6,101.3c0,0.9,0.6,1.5,1.5,1.5s1.5-0.6,1.5-1.5s-0.6-1.5-1.5-1.5
			C11.2,99.8,10.6,100.4,10.6,101.3z M27,98.6c-0.3,2.3,0,4.1,0.6,4.1s1.5-1.8,1.8-3.8c0.3-2.3,0-4.1-0.6-4.1
			C28.2,94.5,27.3,96.3,27,98.6z"/>
		<path fill="#009446" d="M64,87.2c-26.4-6.5-19.1,34.9,0.9,19.4c-1.5-7,7.3-9.4,7.6-4.7c0,2.3,0,6.2,2.9,6.5
			c2.6,0.3,4.4-2.9,1.5-3.5c-11.7-3.8,1.2-21.7,8.5-7.3c2.9,0,5.6,0.9,7.3,3.5c0.3-1.2,2.6-2.6,4.7-2.3v6.5c-2.1,0-3.5,1.2-3.5,3.2
			v6.2h-5.6v-5.9c0-1.8-1.2-2.9-3.5-2.6c0,5-7.6,11.7-15.9,6.8c-32.6,21.1-41.7-37.6-4.7-32.3L64,87.2L64,87.2z M77.5,98.6
			c0,0.6,0.6,1.2,1.2,1.2s1.2-0.6,1.2-1.2c0-0.6-0.6-1.2-1.2-1.2C78.1,97.7,77.5,98,77.5,98.6z"/>
		<path fill="#009446" d="M108,85.4l-1.2,14.4h1.8c9.4-19.1,27.9-1.2,7.9,7.6c2.6,3.5,6.8,2.1,9.7-0.3v7c-4.1,4.1-14.4,3.8-17.3-5.3
			c-0.9-2.6-2.6-2.1-2.6-1.2v7.6h-6.2v-10.3h-1.5v-6.2h2.1l0.9-13.5H108z M116.2,98.9c-0.9,1.2-0.9,2.3-0.3,2.6
			c0.6,0.3,1.5-0.3,2.3-1.2c0.9-1.2,0.9-2.3,0.3-2.6C118,97.2,116.8,97.7,116.2,98.9z"/>
		<path fill="#009446" d="M143.8,69.6l1.8,22.9c3.2-0.3,8.2,0.3,10.6,5.9c2.6-3.8,13.2-6.2,14.1,7.6v7.9h-7V106c0-4.4-5-4.4-5,0v9.7
			h-6.5l-0.6-11.7c-0.6-3.5-6.2-5.9-4.7-0.6c0.3,2.1,3.8,27.3-7.3,28.2c-10.3-0.6-9.4-26.4,0-35.8l-1.5-25.8L143.8,69.6z
			 M138.8,114.2c0,3.8,0.3,7,0.9,7s1.5-2.9,1.5-6.8s-0.3-7-0.9-7C139.4,107.1,138.8,110.4,138.8,114.2z"/>
		<path fill="#009446" d="M186.4,113V111c-5.6,4.1-14.7,4.7-14.4-5.3c1.2-6.8,8.5-12.9,20-13.5v7c-8.8,0.6-13.5,4.4-12.3,7.6
			c0.9,0.9,5.6-1.5,7.3-6.5h6.5v9.1c0,0,2.6-0.9,4.1-1.5c-4.7-12.3,1.5-22.6,7.3-21.7c9.7,1.5,7.3,14.1,1.5,22
			c0.9,1.5,3.5,2.3,6.2,1.2c-6.5-19.1,20.3-18.5,13.8-2.9c5.6-1.5,16.7-11.7,23.8-11.2c12.9-0.3,9.7,21.1-8.2,22v-7
			c0.9-0.3,5.3-1.5,7.6-4.1c1.5-1.5,0.3-6.2-4.4-3.2l-15.6,9.7c-2.6,1.5-7.3,2.3-9.7,0.6c-4.7,3.8-16.1,5.3-19.4-0.6l-7,5
			c0.6,5-0.6,13.2-8.8,12.6C175.8,129.4,175.5,117.1,186.4,113z M184.6,121.5c0,0.9,0.6,1.8,1.2,1.8c0.9,0,1.5-0.6,1.5-1.5
			s-0.6-1.8-1.2-1.8C185.2,119.8,184.6,120.6,184.6,121.5z M202.2,97.5c-0.3,2.1,0,3.8,0.6,4.1c0.6,0,1.5-1.5,1.8-3.8
			c0.3-2.1,0-3.8-0.6-4.1C203.4,93.6,202.5,95.1,202.2,97.5z M218.4,103.3c0,1.5,0.6,2.3,1.8,2.3c0.9,0,1.8-1.2,1.8-2.3
			s-0.6-2.3-1.8-2.3C219,100.7,218.4,101.9,218.4,103.3z"/>
	</g>
</g>
</svg>
